<svg width="34" height="30" viewBox="0 0 34 30" fill="none" xmlns="http://www.w3.org/2000/svg">
<path d="M5.04271 4.28555C5.04271 1.91871 6.91303 0 9.22019 0C11.5273 0 13.3977 1.9187 13.3977 4.28555C13.3977 6.65239 11.5274 8.5711 9.22019 8.5711C6.91303 8.5711 5.04271 6.65239 5.04271 4.28555Z" fill="white"/>
<path d="M20.6014 4.28555C20.6014 1.91871 22.4717 0 24.7788 0C27.086 0 28.9563 1.91871 28.9563 4.28555C28.9563 6.65239 27.086 8.5711 24.7788 8.5711C22.4717 8.5711 20.6014 6.65239 20.6014 4.28555Z" fill="white"/>
<path d="M5.28007 14.2861L6.43355 16.9945C8.21448 21.176 12.2789 24.0889 17 24.0889C21.7211 24.0889 25.7855 21.176 27.5665 16.9945L28.7199 14.2861L34 16.6528L32.8465 19.3611C30.1817 25.618 24.0929 30 17 30C9.9071 30 3.81829 25.618 1.15348 19.3611L0 16.6528L5.28007 14.2861Z" fill="white"/>
</svg>
